<?xml version="1.0" encoding="UTF-8"?>
<svg version="1.1" xmlns="http://www.w3.org/2000/svg" width="192" height="55">
<path d="M0 0 C1.05960938 0.34933594 2.11921875 0.69867188 3.2109375 1.05859375 C6.92459385 2.67701436 9.2552124 3.98805882 12 7 C13.00004709 10.21789948 13.16785043 13.26840957 13.1875 16.625 C13.20022949 17.46087646 13.21295898 18.29675293 13.22607422 19.15795898 C12.93072539 25.14206104 12.93072539 25.14206104 10.35791016 27.51367188 C9.0911181 28.32938736 7.80950333 29.12262386 6.51293945 29.89013672 C6.01366943 30.2563916 5.51439941 30.62264648 5 31 C4.49992342 33.59312462 4.49992342 33.59312462 5 36.25 C4.95033866 39.29589555 4.80451681 41.20106236 2.59179688 43.3984375 C0.7041226 44.81984185 -1.21319179 46.05227238 -3.25 47.25 C-4.25353516 47.84216309 -4.25353516 47.84216309 -5.27734375 48.44628906 C-8.17651528 50.00551933 -10.23515036 51.01401251 -13.55859375 50.953125 C-19.22924052 48.7393045 -24.39410239 45.97060139 -29 42 C-30.08336783 38.74989652 -29.88855167 36.28080615 -29 33 C-29.7425 32.71125 -30.485 32.4225 -31.25 32.125 C-33.5448282 31.18620664 -35.78233105 30.10883447 -38 29 C-38 22.07 -38 15.14 -38 8 C-35.793125 6.659375 -33.58625 5.31875 -31.3125 3.9375 C-30.62712158 3.51073975 -29.94174316 3.08397949 -29.2355957 2.64428711 C-26.40355555 0.97690859 -24.54223546 -0.03965716 -21.22265625 0.203125 C-20.48917969 0.46609375 -19.75570313 0.7290625 -19 1 C-15.06719691 2.18025968 -15.06719691 2.18025968 -11.2734375 1.1015625 C-9.50064059 -0.03100659 -9.50064059 -0.03100659 -7.90625 -1.28515625 C-4.88190435 -2.41928587 -2.9275268 -1.17244931 0 0 Z M-6 4 C-7.77190909 5.35444301 -7.77190909 5.35444301 -9 7 C-8.01 7.33 -7.02 7.66 -6 8 C-6 11.3 -6 14.6 -6 18 C-4.700625 18.61875 -3.40125 19.2375 -2.0625 19.875 C1.875 21.75 1.875 21.75 3 24 C4.32 23.67 5.64 23.34 7 23 C7.54051992 18.87603318 7.77864564 15.1022606 7 11 C3.64552992 7.223584 -0.97577952 4.73630817 -6 4 Z M-25.69921875 5.9765625 C-28.93745306 7.7628826 -31.43930471 9.31553777 -34 12 C-34.95575306 16.47230098 -34.67022678 20.49797165 -34 25 C-31.525 25.99 -31.525 25.99 -29 27 C-29 25.35 -29 23.7 -29 22 C-28.236875 21.71125 -27.47375 21.4225 -26.6875 21.125 C-23.84970692 20.03730987 -23.84970692 20.03730987 -21 18 C-20.41518879 15.11404054 -20.41518879 15.11404054 -20.3125 11.875 C-20.24675781 10.77929688 -20.18101563 9.68359375 -20.11328125 8.5546875 C-20.07589844 7.71164062 -20.03851563 6.86859375 -20 6 C-22.95825011 4.66940631 -22.95825011 4.66940631 -25.69921875 5.9765625 Z M-16 10 C-16 11.65 -16 13.3 -16 15 C-14.35 14.67 -12.7 14.34 -11 14 C-11.66 12.68 -12.32 11.36 -13 10 C-13.99 10 -14.98 10 -16 10 Z M-13 19 C-13.99 19.66 -14.98 20.32 -16 21 C-16 21.99 -16 22.98 -16 24 C-14.02 24.99 -14.02 24.99 -12 26 C-10.70366379 24.93354885 -10.70366379 24.93354885 -10.9375 22.4375 C-10.958125 21.633125 -10.97875 20.82875 -11 20 C-11.66 19.67 -12.32 19.34 -13 19 Z M-6 23 C-6.33 24.98 -6.66 26.96 -7 29 C-6.01 29.33 -5.02 29.66 -4 30 C-3.34 29.67 -2.68 29.34 -2 29 C-2 27.68 -2 26.36 -2 25 C-3.32 24.34 -4.64 23.68 -6 23 Z M-22 24 C-22.99 24.495 -22.99 24.495 -24 25 C-24 26.98 -24 28.96 -24 31 C-22.35 30.67 -20.7 30.34 -19 30 C-19 29.01 -19 28.02 -19 27 C-19.66 27 -20.32 27 -21 27 C-21.33 26.01 -21.66 25.02 -22 24 Z M-20 36 C-22.375 36.75 -22.375 36.75 -24 37 C-22.79476952 40.61569144 -21.92814436 40.94669545 -18.6875 42.75 C-17.90761719 43.19859375 -17.12773437 43.6471875 -16.32421875 44.109375 C-13.58774829 45.15797208 -12.68673832 45.07364787 -10 44 C-8.39409285 43.18907006 -6.81058994 42.33254423 -5.25 41.4375 C-4.45078125 40.98246094 -3.6515625 40.52742188 -2.828125 40.05859375 C-2.22484375 39.70925781 -1.6215625 39.35992187 -1 39 C-1 37.35 -1 35.7 -1 34 C-1.53625 34.226875 -2.0725 34.45375 -2.625 34.6875 C-6.04722715 35.13779305 -8.01107895 33.58985162 -11 32 C-15.00886968 32 -16.71873364 33.79016755 -20 36 Z " fill="#5054F8" transform="translate(38,4)"/>
<path d="M0 0 C1.05960938 0.34933594 2.11921875 0.69867188 3.2109375 1.05859375 C6.92459385 2.67701436 9.2552124 3.98805882 12 7 C13.00004709 10.21789948 13.16785043 13.26840957 13.1875 16.625 C13.20022949 17.46087646 13.21295898 18.29675293 13.22607422 19.15795898 C13.05318475 22.66089567 12.86590665 25.0644227 10.42822266 27.69824219 C5.9612069 31 5.9612069 31 3 31 C2.8125 28.125 2.8125 28.125 3 25 C3.99 24.34 4.98 23.68 6 23 C7.02176161 18.86341362 7.0302957 15.13191507 6 11 C3.11962376 7.93414498 0.07646216 6.05928506 -4 5 C-6.64859475 5.71251215 -6.64859475 5.71251215 -9 7 C-10.051875 7.391875 -11.10375 7.78375 -12.1875 8.1875 C-15.35651127 9.83279911 -15.35651127 9.83279911 -16.375 13.6875 C-16.58125 14.780625 -16.7875 15.87375 -17 17 C-18.32 17.33 -19.64 17.66 -21 18 C-21 14.37 -21 10.74 -21 7 C-19.02 6.34 -17.04 5.68 -15 5 C-15 4.34 -15 3.68 -15 3 C-13.64114298 2.10013468 -12.26193195 1.2309613 -10.875 0.375 C-10.10929687 -0.11226563 -9.34359375 -0.59953125 -8.5546875 -1.1015625 C-5.0259181 -2.34256703 -3.40378689 -1.43113767 0 0 Z " fill="#6BC2F9" transform="translate(38,4)"/>
<path d="M0 0 C1.98 0 3.96 0 6 0 C6 7.59 6 15.18 6 23 C-6.02463194 23.60730464 -6.02463194 23.60730464 -10.3125 20.9375 C-12.43193033 17.24812128 -12.59967873 15.19775114 -12 11 C-9.8 6.4 -9.8 6.4 -7 5 C-5.00039988 4.960008 -2.99952758 4.95653201 -1 5 C-0.67 3.35 -0.34 1.7 0 0 Z M-4 10 C-4.66 10.66 -5.32 11.32 -6 12 C-5.67958603 14.60280568 -5.67958603 14.60280568 -5 17 C-4.01 17.33 -3.02 17.66 -2 18 C-1.34 17.67 -0.68 17.34 0 17 C0 15.02 0 13.04 0 11 C-1.89179203 10.3185177 -1.89179203 10.3185177 -4 10 Z " fill="#000000" transform="translate(118,16)"/>
<path d="M0 0 C3.09851777 1.8074687 4.59108071 2.86760812 5.8125 6.25 C5.874375 6.8275 5.93625 7.405 6 8 C1.38225105 8.18108819 -1.77430028 7.81101416 -6 6 C-8.14991567 6.80184414 -8.14991567 6.80184414 -8.75 8.8125 C-9.05694702 11.49828639 -8.38111722 12.7252187 -7 15 C-5.33388095 15.042721 -3.66617115 15.04063832 -2 15 C-1.67 14.67 -1.34 14.34 -1 14 C1.33297433 13.95907063 3.66705225 13.95758277 6 14 C3.59433962 19.53301887 3.59433962 19.53301887 1.25 21.375 C-3.44348766 22.67874657 -6.86817126 22.51252622 -11.3125 20.5 C-14.30544534 17.7158648 -15.22101064 16.03637167 -15.94921875 12.09375 C-16.05684175 7.65637093 -14.15211941 4.37368083 -11.375 1.0625 C-7.61367287 -0.62019898 -4.04293215 -0.65580539 0 0 Z " fill="#000000" transform="translate(68,17)"/>
<path d="M0 0 C0 5.94 0 11.88 0 18 C-2.33333333 18 -4.66666667 18 -7 18 C-8.423125 18.0928125 -8.423125 18.0928125 -9.875 18.1875 C-13 18 -13 18 -15.3125 17.0625 C-18.01013821 13.76538663 -18.20526746 10.17865896 -18 6 C-14.42207701 -2.17810968 -7.9631885 -0.07807048 0 0 Z M-10 5 C-10.66 5.66 -11.32 6.32 -12 7 C-11.67958603 9.60280568 -11.67958603 9.60280568 -11 12 C-10.01 12.33 -9.02 12.66 -8 13 C-7.34 12.67 -6.68 12.34 -6 12 C-6 10.02 -6 8.04 -6 6 C-7.89179203 5.3185177 -7.89179203 5.3185177 -10 5 Z " fill="#000000" transform="translate(157,21)"/>
<path d="M0 0 C2.91963173 1.98783437 4.61102978 3.4314697 5.48046875 6.9375 C5.75815509 10.90015906 5.23092162 12.66411401 2.9375 16 C-0.77807226 18.52975133 -2.5882483 18.7878128 -7 18 C-9.91963173 16.01216563 -11.61102978 14.5685303 -12.48046875 11.0625 C-12.75815509 7.09984094 -12.23092162 5.33588599 -9.9375 2 C-6.22192774 -0.52975133 -4.4117517 -0.7878128 0 0 Z M-5 5 C-5.33 5.66 -5.66 6.32 -6 7 C-4.35 7 -2.7 7 -1 7 C-1.33 6.34 -1.66 5.68 -2 5 C-2.99 5 -3.98 5 -5 5 Z M-6 11 C-5.67 11.66 -5.34 12.32 -5 13 C-3.68 12.67 -2.36 12.34 -1 12 C-1 11.67 -1 11.34 -1 11 C-2.65 11 -4.3 11 -6 11 Z " fill="#000000" transform="translate(100,21)"/>
<path d="M0 0 C2.15952531 0.8021094 4.17371149 1.6937286 6.1875 2.8125 C6.1875 3.4725 6.1875 4.1325 6.1875 4.8125 C1.5625 6.9375 1.5625 6.9375 -1.8125 5.8125 C-5.81509612 7.03534039 -8.92612991 8.77197755 -11.8125 11.8125 C-12.69211817 16.2579954 -12.40974773 20.33977812 -11.8125 24.8125 C-10.4925 25.4725 -9.1725 26.1325 -7.8125 26.8125 C-7.8125 28.7925 -7.8125 30.7725 -7.8125 32.8125 C-10.91593799 31.60560745 -13.82443893 30.30653054 -16.8125 28.8125 C-16.8125 21.8825 -16.8125 14.9525 -16.8125 7.8125 C-14.605625 6.471875 -12.39875 5.13125 -10.125 3.75 C-9.43962158 3.32323975 -8.75424316 2.89647949 -8.0480957 2.45678711 C-5.20344164 0.78198209 -3.33358312 -0.22223887 0 0 Z " fill="#C186FE" transform="translate(16.8125,4.1875)"/>
<path d="M0 0 C2.4375 1.8125 2.4375 1.8125 4 4 C4 4.99 4 5.98 4 7 C3.01 7.495 3.01 7.495 2 8 C2.66 8.66 3.32 9.32 4 10 C4.35571424 12.77457104 4.36405327 14.37896796 2.9375 16.8125 C-0.07067051 18.65621741 -2.55067218 18.30257262 -6 18 C-8.375 17.3125 -8.375 17.3125 -10 16 C-10.75 13.375 -10.75 13.375 -11 11 C-10.34 10.67 -9.68 10.34 -9 10 C-9.37125 9.2575 -9.7425 8.515 -10.125 7.75 C-11 5 -11 5 -10.25 2.75 C-7.61935111 -0.93290845 -4.20509667 -0.36250833 0 0 Z M-5 5 C-4.67 5.66 -4.34 6.32 -4 7 C-3.01 6.67 -2.02 6.34 -1 6 C-2.32 5.67 -3.64 5.34 -5 5 Z M-5 11 C-5 11.66 -5 12.32 -5 13 C-3.68 12.67 -2.36 12.34 -1 12 C-2.32 11.67 -3.64 11.34 -5 11 Z " fill="#000000" transform="translate(188,21)"/>
<path d="M0 0 C0.928125 0.20625 1.85625 0.4125 2.8125 0.625 C5.02278968 17.46935048 5.02278968 17.46935048 1.51904297 22.47167969 C-2.19848304 25.90171701 -6.41100162 28.05385257 -11.1875 29.625 C-14.14453125 29.32421875 -14.14453125 29.32421875 -16.1875 28.625 C-16.1875 26.975 -16.1875 25.325 -16.1875 23.625 C-15.41664062 23.35945313 -14.64578125 23.09390625 -13.8515625 22.8203125 C-12.84867188 22.46710937 -11.84578125 22.11390625 -10.8125 21.75 C-9.81476562 21.40195312 -8.81703125 21.05390625 -7.7890625 20.6953125 C-5.08307882 19.77717498 -5.08307882 19.77717498 -3.1875 17.625 C-2.64837589 15.3321144 -2.64837589 15.3321144 -2.4375 12.75 C-2.33953125 11.88632812 -2.2415625 11.02265625 -2.140625 10.1328125 C-2.21282649 6.27003255 -3.49788442 4.31461558 -6.1875 1.625 C-3.1875 -0.375 -3.1875 -0.375 0 0 Z " fill="#BF85FE" transform="translate(29.1875,11.375)"/>
<path d="M0 0 C3.66666667 0 7.33333333 0 11 0 C11 1.98 11 3.96 11 6 C10.35546875 6.22429688 9.7109375 6.44859375 9.046875 6.6796875 C6.75611148 7.82889456 6.75611148 7.82889456 6.390625 10.3828125 C6.34421875 11.28773437 6.2978125 12.19265625 6.25 13.125 C6.19328125 14.03507812 6.1365625 14.94515625 6.078125 15.8828125 C6.05234375 16.58148438 6.0265625 17.28015625 6 18 C4.02 18 2.04 18 0 18 C0 12.06 0 6.12 0 0 Z " fill="#000000" transform="translate(127,21)"/>
<path d="M0 0 C3.66666667 0 7.33333333 0 11 0 C11 1.98 11 3.96 11 6 C10.35546875 6.22429688 9.7109375 6.44859375 9.046875 6.6796875 C6.75611148 7.82889456 6.75611148 7.82889456 6.390625 10.3828125 C6.34421875 11.28773437 6.2978125 12.19265625 6.25 13.125 C6.19328125 14.03507812 6.1365625 14.94515625 6.078125 15.8828125 C6.05234375 16.58148438 6.0265625 17.28015625 6 18 C4.02 18 2.04 18 0 18 C0 12.06 0 6.12 0 0 Z " fill="#000000" transform="translate(76,21)"/>
<path d="M0 0 C1.98 0 3.96 0 6 0 C6 7.59 6 15.18 6 23 C4.02 23 2.04 23 0 23 C0 15.41 0 7.82 0 0 Z " fill="#000000" transform="translate(169,16)"/>
<path d="M0 0 C1.98 0 3.96 0 6 0 C6 5.94 6 11.88 6 18 C4.02 18 2.04 18 0 18 C0 12.06 0 6.12 0 0 Z " fill="#000000" transform="translate(160,21)"/>
<path d="M0 0 C0 1.98 0 3.96 0 6 C-1.5625 7.25 -1.5625 7.25 -4 8 C-6.57001015 6.93237266 -8.6530403 5.53455057 -11 4 C-10.34 3.01 -9.68 2.02 -9 1 C-6 0.875 -6 0.875 -3 1 C-1 0 -1 0 0 0 Z " fill="#6CC2F8" transform="translate(37,32)"/>
<path d="M0 0 C0 0.99 0 1.98 0 3 C0.99 3.33 1.98 3.66 3 4 C2.67 4.99 2.34 5.98 2 7 C0.125 7.8125 0.125 7.8125 -2 8 C-2.99 7.34 -3.98 6.68 -5 6 C-4.625 3.5625 -4.625 3.5625 -4 1 C-2 0 -2 0 0 0 Z " fill="#6CBFF9" transform="translate(22,25)"/>
<path d="M0 0 C1.67542976 0.28604898 3.34385343 0.61781233 5 1 C5.5625 2.9375 5.5625 2.9375 6 5 C5 6 5 6 2.4375 6.0625 C1.2309375 6.0315625 1.2309375 6.0315625 0 6 C-0.38218767 4.34385343 -0.71395102 2.67542976 -1 1 C-0.67 0.67 -0.34 0.34 0 0 Z " fill="#000000" transform="translate(161,14)"/>
</svg>
