<?xml version="1.0" encoding="UTF-8"?>
<svg version="1.1" xmlns="http://www.w3.org/2000/svg" width="256" height="256">
<path d="M0 0 C84.48 0 168.96 0 256 0 C256 84.48 256 168.96 256 256 C171.52 256 87.04 256 0 256 C0 171.52 0 87.04 0 0 Z " fill="#090947" transform="translate(0,0)"/>
<path d="M0 0 C2.84978237 1.3089384 5.57180167 2.74190334 8.31005859 4.27075195 C9.39472412 4.87467773 10.47938965 5.47860352 11.59692383 6.10083008 C12.76439383 6.75500041 13.93179125 7.40930029 15.09912109 8.0637207 C16.30613295 8.73772933 17.51324687 9.4115552 18.72045898 10.08520508 C22.39124477 12.13538918 26.05823921 14.19228351 29.72412109 16.2512207 C30.81998535 16.86658691 31.91584961 17.48195313 33.04492188 18.1159668 C36.08523295 19.82522921 39.12400353 21.53717656 42.16162109 23.2512207 C43.05220215 23.75371338 43.9427832 24.25620605 44.86035156 24.77392578 C46.58665717 25.75108904 48.30594225 26.74077082 50.01757812 27.7434082 C52.78063678 29.32845454 52.78063678 29.32845454 56.00488281 30.7590332 C64.08911806 34.71924429 64.08911806 34.71924429 65.7668457 38.7668457 C66.15914427 41.99112695 66.12673508 45.0062258 65.97412109 48.2512207 C65.9529024 50.13157173 65.93185713 52.01192734 65.9145813 53.89231873 C65.8966379 55.28598185 65.8696772 56.6795519 65.83468628 58.07289124 C65.70280972 63.46608526 65.79231417 68.83186473 65.96142578 74.22372437 C66.09347312 78.48082119 66.18571964 82.73837437 66.27380371 86.99658203 C66.32388917 89.1193288 66.38705816 91.24180843 66.46350098 93.36376953 C66.56540742 96.37798041 66.60839218 99.38788949 66.63818359 102.40356445 C66.6813974 103.30872299 66.72461121 104.21388153 66.76913452 105.14646912 C66.75798983 109.00778346 66.66389233 111.30293003 63.87261963 114.11950684 C59.72585421 117.00174233 55.48584598 118.94988956 50.63037109 120.3527832 C43.39918913 123.01152642 37.08829032 125.63739953 32.72412109 132.2512207 C30.34896261 141.28871212 31.34528197 151.32276096 32.17724609 160.52124023 C33.22944278 174.20686904 33.22944278 174.20686904 30.4881897 177.92971802 C27.03199305 180.93002037 23.01235538 182.6557509 18.8041687 184.36184692 C15.55846202 185.74962594 12.62295004 187.58662021 9.61865234 189.42700195 C8.44984613 190.11436472 7.27934047 190.79884564 6.10717773 191.48046875 C5.23175827 191.99158707 5.23175827 191.99158707 4.33865356 192.51303101 C2.47888135 193.59738633 0.61797487 194.67977955 -1.24291992 195.76220703 C-7.01116446 199.12367591 -12.74504328 202.51277322 -18.38525391 206.0871582 C-19.29509033 206.65781006 -20.20492676 207.22846191 -21.14233398 207.81640625 C-22.80942887 208.86833347 -24.46634669 209.93663493 -26.1105957 211.02392578 C-26.8444751 211.48436279 -27.57835449 211.9447998 -28.33447266 212.41918945 C-28.95636475 212.82419678 -29.57825684 213.2292041 -30.21899414 213.64648438 C-34.10732808 214.78967763 -37.38180514 212.71737203 -40.81103516 210.92944336 C-41.64505859 210.42977051 -42.47908203 209.93009766 -43.33837891 209.4152832 C-44.7644043 208.56969849 -44.7644043 208.56969849 -46.21923828 207.70703125 C-47.22792969 207.10286377 -48.23662109 206.49869629 -49.27587891 205.8762207 C-59.12927683 200.04739712 -69.08889665 194.47264538 -79.15869141 189.02856445 C-86.2496972 185.19396053 -93.26048722 181.22219713 -100.27587891 177.2512207 C-100.27587891 165.3712207 -100.27587891 153.4912207 -100.27587891 141.2512207 C-101.92587891 140.5912207 -103.57587891 139.9312207 -105.27587891 139.2512207 C-107.17147082 138.25254665 -109.05077473 137.22259973 -110.91650391 136.16918945 C-111.98771484 135.56655273 -113.05892578 134.96391602 -114.16259766 134.34301758 C-115.27248047 133.71459961 -116.38236328 133.08618164 -117.52587891 132.4387207 C-119.71852623 131.20293537 -121.91123355 129.96725646 -124.10400391 128.73168945 C-125.55661621 127.91027466 -125.55661621 127.91027466 -127.03857422 127.07226562 C-131.10886586 124.78264983 -135.19171197 122.51596889 -139.27587891 120.2512207 C-139.64782977 110.51608164 -139.93147122 100.78264939 -140.10487366 91.04183388 C-140.18814053 86.51743058 -140.30085741 81.99790989 -140.48291016 77.47631836 C-140.65776842 73.10567483 -140.75260535 68.73969807 -140.79391479 64.36582565 C-140.82331322 62.70427263 -140.88074365 61.04295522 -140.96755981 59.38341141 C-141.49643903 48.84707279 -141.49643903 48.84707279 -139.27587891 44.2512207 C-135.40699458 40.08372042 -130.35803576 37.60540204 -125.27319241 35.21188927 C-122.33597876 33.79914719 -119.5912745 32.13062643 -116.79931641 30.45043945 C-114.75164789 29.27670207 -112.70215015 28.10615039 -110.65087891 26.9387207 C-104.01666914 23.15415349 -97.40211769 19.3551411 -90.88916016 15.36450195 C-89.88900879 14.75582275 -88.88885742 14.14714355 -87.85839844 13.52001953 C-85.97045902 12.36652644 -84.08950588 11.20149631 -82.21679688 10.0234375 C-81.37391113 9.51079346 -80.53102539 8.99814941 -79.66259766 8.4699707 C-78.93258545 8.01557617 -78.20257324 7.56118164 -77.45043945 7.09301758 C-74.55924686 5.97380437 -73.20992372 6.27697231 -70.27587891 7.2512207 C-68.2451198 8.3788415 -66.25701781 9.58480187 -64.30322266 10.84106445 C-63.14525136 11.55125389 -61.98569129 12.2588581 -60.82470703 12.96411133 C-59.01371458 14.07013394 -57.21677381 15.18649472 -55.44213867 16.35009766 C-48.38933015 21.123772 -48.38933015 21.123772 -40.22607422 21.64550781 C-37.02656845 20.08483164 -34.21076946 18.26500427 -31.27587891 16.2512207 C-29.54128771 15.23788607 -27.80643161 14.22486887 -26.06156921 13.22932434 C-23.06485032 11.51018636 -20.11143021 9.71916112 -17.15087891 7.9387207 C-15.32675302 6.84708934 -13.50191648 5.75665696 -11.67678833 4.66670227 C-10.04698846 3.6925818 -8.41894867 2.71551833 -6.79101562 1.73828125 C-2.47418222 -0.81402241 -2.47418222 -0.81402241 0 0 Z " fill="#4E53F4" transform="translate(163.27587890625,24.748779296875)"/>
<path d="M0 0 C2.84978237 1.3089384 5.57180167 2.74190334 8.31005859 4.27075195 C9.39472412 4.87467773 10.47938965 5.47860352 11.59692383 6.10083008 C12.76439383 6.75500041 13.93179125 7.40930029 15.09912109 8.0637207 C16.30613295 8.73772933 17.51324687 9.4115552 18.72045898 10.08520508 C22.39124477 12.13538918 26.05823921 14.19228351 29.72412109 16.2512207 C30.81998535 16.86658691 31.91584961 17.48195313 33.04492188 18.1159668 C36.08523295 19.82522921 39.12400353 21.53717656 42.16162109 23.2512207 C43.05220215 23.75371338 43.9427832 24.25620605 44.86035156 24.77392578 C46.58665717 25.75108904 48.30594225 26.74077082 50.01757812 27.7434082 C52.78063678 29.32845454 52.78063678 29.32845454 56.00488281 30.7590332 C64.08911806 34.71924429 64.08911806 34.71924429 65.7668457 38.7668457 C66.15914427 41.99112695 66.12673508 45.0062258 65.97412109 48.2512207 C65.9529024 50.13157173 65.93185713 52.01192734 65.9145813 53.89231873 C65.8966379 55.28598185 65.8696772 56.6795519 65.83468628 58.07289124 C65.70280972 63.46608526 65.79231417 68.83186473 65.96142578 74.22372437 C66.09347312 78.48082119 66.18571964 82.73837437 66.27380371 86.99658203 C66.32388917 89.1193288 66.38705816 91.24180843 66.46350098 93.36376953 C66.56540742 96.37798041 66.60839218 99.38788949 66.63818359 102.40356445 C66.6813974 103.30872299 66.72461121 104.21388153 66.76913452 105.14646912 C66.76149618 107.79293512 66.63719385 109.76365975 65.72412109 112.2512207 C63.03665917 114.88258592 60.05023408 116.53668937 56.72412109 118.2512207 C55.18896851 119.179104 55.18896851 119.179104 53.62280273 120.12573242 C50.67985489 121.79699727 47.73612207 123.46653969 44.78662109 125.1262207 C43.74699219 125.71918945 42.70736328 126.3121582 41.63623047 126.9230957 C40.64558594 127.48254883 39.65494141 128.04200195 38.63427734 128.6184082 C37.29055054 129.37806885 37.29055054 129.37806885 35.91967773 130.15307617 C33.72412109 131.2512207 33.72412109 131.2512207 31.72412109 131.2512207 C29.78941309 114.84754263 29.78941309 114.84754263 32.96777344 110.58227539 C36.45716873 107.62647622 40.47665222 105.89998111 44.72412109 104.2512207 C45.38412109 103.9212207 46.04412109 103.5912207 46.72412109 103.2512207 C47.05412109 84.4412207 47.38412109 65.6312207 47.72412109 46.2512207 C46.07412109 45.5912207 44.42412109 44.9312207 42.72412109 44.2512207 C41.19041394 43.47672517 39.66971264 42.67604553 38.16162109 41.8527832 C36.85741211 41.1414624 36.85741211 41.1414624 35.52685547 40.41577148 C34.13950195 39.65369385 34.13950195 39.65369385 32.72412109 38.8762207 C31.28262695 38.09287354 31.28262695 38.09287354 29.81201172 37.29370117 C24.75367877 34.52943605 19.75456731 31.69650812 14.81787109 28.7199707 C13.87814453 28.15971191 12.93841797 27.59945312 11.97021484 27.0222168 C10.17062918 25.94355334 8.38102062 24.84802642 6.60302734 23.73413086 C1.97490442 20.8737486 1.97490442 20.8737486 -3.28369141 20.5793457 C-7.47080212 22.91888015 -11.58944238 25.32405804 -15.65087891 27.8762207 C-16.48232422 28.3918457 -17.31376953 28.9074707 -18.17041016 29.4387207 C-20.20905852 30.70408865 -22.24400773 31.97500936 -24.27587891 33.2512207 C-22.56078125 34.20834961 -22.56078125 34.20834961 -20.81103516 35.18481445 C-19.32010087 36.01936257 -17.82921811 36.85400275 -16.33837891 37.6887207 C-15.58363281 38.10959961 -14.82888672 38.53047852 -14.05126953 38.96411133 C-13.33261719 39.36694336 -12.61396484 39.76977539 -11.87353516 40.18481445 C-10.87592163 40.7425354 -10.87592163 40.7425354 -9.8581543 41.31152344 C-8.27587891 42.2512207 -8.27587891 42.2512207 -7.27587891 43.2512207 C-7.15969769 45.6079227 -7.10790428 47.93574211 -7.09887695 50.29370117 C-7.09230576 51.03029968 -7.08573456 51.76689819 -7.07896423 52.52581787 C-7.05918736 54.97334889 -7.04755946 57.42081847 -7.03759766 59.8684082 C-7.03352213 60.70222141 -7.0294466 61.53603462 -7.02524757 62.3951149 C-7.00436886 66.80759689 -6.99007455 71.22004761 -6.98071289 75.63256836 C-6.96963987 80.19830842 -6.93523523 84.76356222 -6.89554119 89.32913017 C-6.86943946 92.83266121 -6.86102687 96.33607525 -6.85743141 99.83969498 C-6.85254931 101.52306531 -6.8408894 103.20642986 -6.82239342 104.88970566 C-6.79813589 107.24351658 -6.79894164 109.59605446 -6.8059082 111.94995117 C-6.78669312 112.99740005 -6.78669312 112.99740005 -6.76708984 114.06600952 C-6.80197712 117.29233592 -6.88334157 118.84797394 -9.18025208 121.20755005 C-11.27587891 122.2512207 -11.27587891 122.2512207 -13.27587891 122.2512207 C-13.27587891 122.9112207 -13.27587891 123.5712207 -13.27587891 124.2512207 C-12.57462891 124.5193457 -11.87337891 124.7874707 -11.15087891 125.0637207 C-8.27587891 126.2512207 -8.27587891 126.2512207 -5.33837891 127.9387207 C-1.62682914 129.52938489 -0.15658173 129.19633652 3.72412109 128.2512207 C6.73895313 126.87912792 6.73895313 126.87912792 9.59912109 125.1887207 C10.56591797 124.64086914 11.53271484 124.09301758 12.52880859 123.52856445 C13.25326172 123.10704102 13.97771484 122.68551758 14.72412109 122.2512207 C16.77186645 139.21479167 16.77186645 139.21479167 13.54492188 143.99975586 C10.13397876 147.16492508 6.2000418 149.01244083 1.72412109 150.2512207 C-3.10604875 149.86747089 -6.28407246 148.3366018 -10.37353516 145.80200195 C-11.51582622 145.11207332 -12.65841321 144.42263447 -13.80126953 143.73364258 C-15.57851232 142.64728968 -17.35181821 141.55534992 -19.11987305 140.45410156 C-20.84054487 139.38756551 -22.57564755 138.34442246 -24.31103516 137.30200195 C-25.33592041 136.6694751 -26.36080566 136.03694824 -27.41674805 135.38525391 C-30.17163411 133.97610242 -30.17163411 133.97610242 -32.75292969 134.84057617 C-33.58550293 135.30608887 -34.41807617 135.77160156 -35.27587891 136.2512207 C-36.26950439 136.78465088 -37.26312988 137.31808105 -38.28686523 137.86767578 C-39.93078247 138.80969849 -39.93078247 138.80969849 -41.60791016 139.77075195 C-42.20335129 140.11120041 -42.79879242 140.45164886 -43.41227722 140.80241394 C-44.66790128 141.52120302 -45.92263205 142.24155455 -47.17651367 142.96337891 C-49.07017887 144.05324598 -50.96670254 145.13799115 -52.86376953 146.22192383 C-54.09122189 146.92528327 -55.31843936 147.6290528 -56.54541016 148.33325195 C-57.1393306 148.67385651 -57.73325104 149.01446106 -58.34516907 149.36538696 C-61.61539388 151.25297247 -64.80773687 153.22177353 -67.96337891 155.29418945 C-71.27587891 157.2512207 -71.27587891 157.2512207 -74.46337891 156.7512207 C-75.85556641 156.0087207 -75.85556641 156.0087207 -77.27587891 155.2512207 C-78.15244141 154.92508789 -79.02900391 154.59895508 -79.93212891 154.26293945 C-82.27587891 152.2512207 -82.27587891 152.2512207 -82.67749023 150.22827148 C-82.76934689 147.65680256 -82.71058688 145.13384837 -82.58837891 142.5637207 C-82.56582031 141.67104492 -82.54326172 140.77836914 -82.52001953 139.85864258 C-82.46108465 137.65447798 -82.37888708 135.45369398 -82.27587891 133.2512207 C-78.90125176 133.79845754 -77.19352891 134.3061207 -74.27587891 136.2512207 C-70.53932365 135.9106344 -67.83149878 134.64128144 -64.63134766 132.74731445 C-63.36967773 132.00771484 -63.36967773 132.00771484 -62.08251953 131.25317383 C-61.21820313 130.7369043 -60.35388672 130.22063477 -59.46337891 129.6887207 C-58.13790039 128.90851563 -58.13790039 128.90851563 -56.78564453 128.11254883 C-54.61186462 126.83178121 -52.44220803 125.5445373 -50.27587891 124.2512207 C-53.11616013 121.23225861 -56.31593015 119.45660039 -59.96337891 117.5637207 C-60.56988281 117.24338867 -61.17638672 116.92305664 -61.80126953 116.59301758 C-63.29022457 115.80750587 -64.78270938 115.02869128 -66.27587891 114.2512207 C-67.08907454 109.69176485 -67.40109953 105.77274943 -66.27587891 101.2512207 C-61.64900865 96.92244012 -56.2801333 94.25263884 -50.27587891 92.2512207 C-50.44603516 93.28569336 -50.44603516 93.28569336 -50.61962891 94.34106445 C-50.81234235 97.85326695 -50.63481359 99.97551704 -49.27587891 103.2512207 C-46.92065587 105.42763233 -44.32869777 106.96209513 -41.52587891 108.5012207 C-40.80980469 108.89559326 -40.09373047 109.28996582 -39.35595703 109.69628906 C-36.18001604 111.29483145 -34.03963107 112.28919733 -30.44775391 112.1105957 C-28.04101146 111.24606048 -28.04101146 111.24606048 -25.27587891 109.2512207 C-24.83704725 106.78920052 -24.83704725 106.78920052 -24.93530273 103.88354492 C-24.93552933 102.76253387 -24.93575592 101.64152283 -24.93598938 100.48654175 C-24.95147324 99.27193268 -24.96695709 98.05732361 -24.98291016 96.8059082 C-24.987155 95.56575958 -24.99139984 94.32561096 -24.99577332 93.04788208 C-25.00974675 89.74986607 -25.0367053 86.45228721 -25.06988525 83.15441895 C-25.10056652 79.78960528 -25.11427444 76.42472766 -25.12939453 73.05981445 C-25.16253161 66.45677799 -25.21278193 59.85403512 -25.27587891 53.2512207 C-27.80448361 51.68360591 -30.34497002 50.14812792 -32.90087891 48.6262207 C-33.61373047 48.18020508 -34.32658203 47.73418945 -35.06103516 47.2746582 C-39.54970775 44.59026875 -39.54970775 44.59026875 -44.67431641 44.9152832 C-45.53283203 45.35614258 -46.39134766 45.79700195 -47.27587891 46.2512207 C-48.26587891 46.7462207 -48.26587891 46.7462207 -49.27587891 47.2512207 C-49.23285645 47.96665039 -49.18983398 48.68208008 -49.14550781 49.41918945 C-48.20294729 69.3126853 -48.20294729 69.3126853 -51.66503906 74.22045898 C-55.60070112 77.58098606 -61.03047411 80.2512207 -66.27587891 80.2512207 C-66.37466492 74.18234019 -66.4473084 68.11392632 -66.49560547 62.04443359 C-66.51573621 59.97924652 -66.54304335 57.91411654 -66.57763672 55.84912109 C-66.62609052 52.8827507 -66.64883276 49.91713298 -66.66650391 46.95043945 C-66.68714905 46.0253508 -66.70779419 45.10026215 -66.72906494 44.1471405 C-66.73130838 37.75623228 -66.73130838 37.75623228 -64.37646484 35.14501953 C-62.27587891 34.2512207 -62.27587891 34.2512207 -60.27587891 34.2512207 C-60.27587891 33.5912207 -60.27587891 32.9312207 -60.27587891 32.2512207 C-61.16275391 31.9830957 -62.04962891 31.7149707 -62.96337891 31.4387207 C-66.27587891 30.2512207 -66.27587891 30.2512207 -68.77587891 28.5637207 C-72.10814102 26.81428309 -73.65223756 27.37746427 -77.27587891 28.2512207 C-80.13163923 29.56006144 -80.13163923 29.56006144 -82.95166016 31.27856445 C-84.01964844 31.90174561 -85.08763672 32.52492676 -86.18798828 33.16699219 C-87.31011719 33.8341626 -88.43224609 34.50133301 -89.58837891 35.1887207 C-90.75127325 35.87067424 -91.91468852 36.55174022 -93.07861328 37.23193359 C-98.29776995 40.28751209 -103.49481692 43.38030604 -108.69384766 46.4699707 C-109.47912842 46.93540283 -110.26440918 47.40083496 -111.07348633 47.88037109 C-112.51024908 48.73389195 -113.94415921 49.59223857 -115.37475586 50.45605469 C-120.05661384 53.2512207 -120.05661384 53.2512207 -122.27587891 53.2512207 C-122.27587891 72.0612207 -122.27587891 90.8712207 -122.27587891 110.2512207 C-120.29587891 110.9112207 -118.31587891 111.5712207 -116.27587891 112.2512207 C-114.23364258 113.28857422 -114.23364258 113.28857422 -112.44384766 114.38012695 C-111.46448242 114.97277344 -111.46448242 114.97277344 -110.46533203 115.57739258 C-109.8046875 115.98538086 -109.14404297 116.39336914 -108.46337891 116.8137207 C-107.78339844 117.22557617 -107.10341797 117.63743164 -106.40283203 118.06176758 C-101.44540218 121.08169743 -101.44540218 121.08169743 -100.27587891 122.2512207 C-100.1893628 123.66692193 -100.16882987 125.08681571 -100.17822266 126.50512695 C-100.18144531 127.35913086 -100.18466797 128.21313477 -100.18798828 129.09301758 C-100.20055664 130.43976563 -100.20055664 130.43976563 -100.21337891 131.8137207 C-100.21789062 132.71541992 -100.22240234 133.61711914 -100.22705078 134.54614258 C-100.23887666 136.78123384 -100.2553567 139.01619507 -100.27587891 141.2512207 C-104.02178954 139.84288436 -107.43315355 138.13592563 -110.91650391 136.16918945 C-111.98771484 135.56655273 -113.05892578 134.96391602 -114.16259766 134.34301758 C-115.27248047 133.71459961 -116.38236328 133.08618164 -117.52587891 132.4387207 C-119.71852623 131.20293537 -121.91123355 129.96725646 -124.10400391 128.73168945 C-125.55661621 127.91027466 -125.55661621 127.91027466 -127.03857422 127.07226562 C-131.10886586 124.78264983 -135.19171197 122.51596889 -139.27587891 120.2512207 C-139.64782977 110.51608164 -139.93147122 100.78264939 -140.10487366 91.04183388 C-140.18814053 86.51743058 -140.30085741 81.99790989 -140.48291016 77.47631836 C-140.65776842 73.10567483 -140.75260535 68.73969807 -140.79391479 64.36582565 C-140.82331322 62.70427263 -140.88074365 61.04295522 -140.96755981 59.38341141 C-141.49643903 48.84707279 -141.49643903 48.84707279 -139.27587891 44.2512207 C-135.40699458 40.08372042 -130.35803576 37.60540204 -125.27319241 35.21188927 C-122.33597876 33.79914719 -119.5912745 32.13062643 -116.79931641 30.45043945 C-114.75164789 29.27670207 -112.70215015 28.10615039 -110.65087891 26.9387207 C-104.01666914 23.15415349 -97.40211769 19.3551411 -90.88916016 15.36450195 C-89.88900879 14.75582275 -88.88885742 14.14714355 -87.85839844 13.52001953 C-85.97045902 12.36652644 -84.08950588 11.20149631 -82.21679688 10.0234375 C-81.37391113 9.51079346 -80.53102539 8.99814941 -79.66259766 8.4699707 C-78.93258545 8.01557617 -78.20257324 7.56118164 -77.45043945 7.09301758 C-74.55924686 5.97380437 -73.20992372 6.27697231 -70.27587891 7.2512207 C-68.2451198 8.3788415 -66.25701781 9.58480187 -64.30322266 10.84106445 C-63.14525136 11.55125389 -61.98569129 12.2588581 -60.82470703 12.96411133 C-59.01371458 14.07013394 -57.21677381 15.18649472 -55.44213867 16.35009766 C-48.38933015 21.123772 -48.38933015 21.123772 -40.22607422 21.64550781 C-37.02656845 20.08483164 -34.21076946 18.26500427 -31.27587891 16.2512207 C-29.54128771 15.23788607 -27.80643161 14.22486887 -26.06156921 13.22932434 C-23.06485032 11.51018636 -20.11143021 9.71916112 -17.15087891 7.9387207 C-15.32675302 6.84708934 -13.50191648 5.75665696 -11.67678833 4.66670227 C-10.04698846 3.6925818 -8.41894867 2.71551833 -6.79101562 1.73828125 C-2.47418222 -0.81402241 -2.47418222 -0.81402241 0 0 Z " fill="#69BFF5" transform="translate(163.27587890625,24.748779296875)"/>
<path d="M0 0 C2.47851859 1.27781403 4.85760235 2.58044455 7.25 4 C8.20519531 4.55300781 8.20519531 4.55300781 9.1796875 5.1171875 C13.82573342 7.82573342 13.82573342 7.82573342 15 9 C15.11618122 11.356702 15.16797462 13.68452141 15.17700195 16.04248047 C15.18357315 16.77907898 15.19014435 17.51567749 15.19691467 18.27459717 C15.21669155 20.72212819 15.22831945 23.16959777 15.23828125 25.6171875 C15.24235678 26.45100071 15.2464323 27.28481392 15.25063133 28.1438942 C15.27151005 32.55637619 15.28580436 36.96882691 15.29516602 41.38134766 C15.30623903 45.94708771 15.34064368 50.51234152 15.38033772 55.07790947 C15.40643945 58.58144051 15.41485204 62.08485454 15.41844749 65.58847427 C15.42332959 67.2718446 15.43498951 68.95520916 15.45348549 70.63848495 C15.47774302 72.99229587 15.47693726 75.34483376 15.4699707 77.69873047 C15.48278076 78.39702972 15.49559082 79.09532898 15.50878906 79.81478882 C15.47390179 83.04111522 15.39253734 84.59675324 13.09562683 86.95632935 C11 88 11 88 9 88 C9 88.66 9 89.32 9 90 C9.70125 90.268125 10.4025 90.53625 11.125 90.8125 C14 92 14 92 16.9375 93.6875 C20.64904977 95.27816419 22.11929717 94.94511582 26 94 C29.01483203 92.62790721 29.01483203 92.62790721 31.875 90.9375 C32.84179688 90.38964844 33.80859375 89.84179688 34.8046875 89.27734375 C35.52914062 88.85582031 36.25359375 88.43429688 37 88 C39.04774535 104.96357097 39.04774535 104.96357097 35.82080078 109.74853516 C32.40985767 112.91370437 28.47592071 114.76122012 24 116 C19.16983016 115.61625019 15.99180645 114.0853811 11.90234375 111.55078125 C10.76005269 110.86085262 9.61746569 110.17141376 8.47460938 109.48242188 C6.69736658 108.39606898 4.9240607 107.30412921 3.15600586 106.20288086 C1.43533404 105.13634481 -0.29976864 104.09320176 -2.03515625 103.05078125 C-3.0600415 102.41825439 -4.08492676 101.78572754 -5.14086914 101.1340332 C-7.8957552 99.72488172 -7.8957552 99.72488172 -10.47705078 100.58935547 C-11.72591064 101.28762451 -11.72591064 101.28762451 -13 102 C-13.99362549 102.53343018 -14.98725098 103.06686035 -16.01098633 103.61645508 C-17.10693115 104.24447021 -18.20287598 104.87248535 -19.33203125 105.51953125 C-20.22519295 106.03020393 -20.22519295 106.03020393 -21.13639832 106.55119324 C-22.39202237 107.26998232 -23.64675315 107.99033385 -24.90063477 108.7121582 C-26.79429997 109.80202528 -28.69082363 110.88677045 -30.58789062 111.97070312 C-31.81534298 112.67406257 -33.04256045 113.3778321 -34.26953125 114.08203125 C-34.86345169 114.4226358 -35.45737213 114.76324036 -36.06929016 115.11416626 C-39.33951497 117.00175177 -42.53185796 118.97055283 -45.6875 121.04296875 C-49 123 -49 123 -52.1875 122.5 C-53.115625 122.005 -54.04375 121.51 -55 121 C-55.8765625 120.67386719 -56.753125 120.34773438 -57.65625 120.01171875 C-60 118 -60 118 -60.40161133 115.97705078 C-60.49346799 113.40558185 -60.43470797 110.88262767 -60.3125 108.3125 C-60.28994141 107.41982422 -60.26738281 106.52714844 -60.24414062 105.60742188 C-60.18520574 103.40325728 -60.10300818 101.20247328 -60 99 C-56.62537285 99.54723683 -54.91765 100.0549 -52 102 C-48.26344474 101.65941369 -45.55561987 100.39006074 -42.35546875 98.49609375 C-41.51435547 98.00302734 -40.67324219 97.50996094 -39.80664062 97.00195312 C-38.51016602 96.22754883 -38.51016602 96.22754883 -37.1875 95.4375 C-36.30384766 94.91736328 -35.42019531 94.39722656 -34.50976562 93.86132812 C-32.33598572 92.5805605 -30.16632913 91.2933166 -28 90 C-30.84028122 86.98103791 -34.04005124 85.20537969 -37.6875 83.3125 C-38.29400391 82.99216797 -38.90050781 82.67183594 -39.52539062 82.34179688 C-41.01434566 81.55628516 -42.50683047 80.77747058 -44 80 C-44.81319563 75.44054414 -45.12522062 71.52152873 -44 67 C-39.37312974 62.67121942 -34.0042544 60.00141813 -28 58 C-28.1134375 58.68964844 -28.226875 59.37929687 -28.34375 60.08984375 C-28.53646344 63.60204625 -28.35893468 65.72429633 -27 69 C-24.64477697 71.17641163 -22.05281887 72.71087442 -19.25 74.25 C-18.53392578 74.64437256 -17.81785156 75.03874512 -17.08007812 75.44506836 C-13.90413714 77.04361074 -11.76375217 78.03797663 -8.171875 77.859375 C-5.76513256 76.99483978 -5.76513256 76.99483978 -3 75 C-2.44474571 72.61623931 -2.44474571 72.61623931 -2.38964844 69.79101562 C-2.33500427 68.70228149 -2.28036011 67.61354736 -2.22406006 66.49182129 C-2.0639366 61.48564111 -1.92438937 56.48074069 -1.83984375 51.47265625 C-1.78024777 48.8374775 -1.68488463 46.20285026 -1.55273438 43.5703125 C-0.19834247 29.50540267 -0.19834247 29.50540267 -4.7331543 16.78955078 C-9.30733153 12.93920513 -14.35280098 10.82187074 -20 9 C-16.75411431 6.38063787 -13.53178771 3.91142257 -10 1.6875 C-9.175 1.15511719 -8.35 0.62273438 -7.5 0.07421875 C-4.3488995 -1.27976975 -3.22728031 -1.12190957 0 0 Z " fill="#BF84FC" transform="translate(141,59)"/>
<path d="M0 0 C1.03979004 0.60255615 2.07958008 1.2051123 3.15087891 1.82592773 C3.7259317 2.1568895 4.3009845 2.48785126 4.89346313 2.82884216 C6.72445021 3.8839828 8.55105827 4.94643552 10.37744141 6.00952148 C12.1598626 7.04069237 13.94318575 8.07028947 15.72662354 9.09970093 C16.92600772 9.79211654 18.12502344 10.48517081 19.32366943 11.17886353 C26.51289143 15.33379508 33.7577372 19.38986866 41.00244141 23.44702148 C41.35154509 30.72183562 41.6172339 37.99482179 41.77962399 45.27634335 C41.85761973 48.65893608 41.96309843 52.03576637 42.1340332 55.41503906 C43.16476852 77.37576437 43.16476852 77.37576437 39.49786377 82.58404541 C35.82316284 85.90753853 30.14426255 89.44702148 25.00244141 89.44702148 C25.04046875 88.65183105 25.07849609 87.85664063 25.11767578 87.03735352 C25.19125698 80.75482482 25.19125698 80.75482482 22.22509766 75.49291992 C19.72160077 73.88126741 17.1971193 72.58799485 14.50244141 71.32202148 C13.56368164 70.81292236 12.62492187 70.30382324 11.65771484 69.77929688 C7.14871876 67.35298764 2.73160414 65.28579806 -2.13818359 63.70092773 C-7.11624798 61.86706641 -11.36803279 60.29508649 -13.99755859 55.44702148 C-14.95978167 48.82780147 -14.66992081 42.21234963 -14.40048218 35.54473877 C-13.75938727 26.31957352 -13.75938727 26.31957352 -16.63867188 17.85180664 C-21.12682843 13.83996094 -26.23582704 11.94397189 -31.99755859 10.44702148 C-27.73044672 7.17227522 -23.22793786 4.4040674 -18.62255859 1.63452148 C-17.78466797 1.10665039 -16.94677734 0.5787793 -16.08349609 0.03491211 C-15.26365234 -0.45428711 -14.44380859 -0.94348633 -13.59912109 -1.44750977 C-12.86000488 -1.899729 -12.12088867 -2.35194824 -11.359375 -2.81787109 C-7.06577248 -4.15424045 -3.81020004 -1.97399271 0 0 Z " fill="#090948" transform="translate(169.99755859375,47.552978515625)"/>
<path d="M0 0 C2.5546875 1.19140625 2.5546875 1.19140625 4.875 2.5625 C6.04675781 3.24505859 6.04675781 3.24505859 7.2421875 3.94140625 C8.11230469 4.46541016 8.11230469 4.46541016 9 5 C9 5.66 9 6.32 9 7 C4.61538462 10 4.61538462 10 2 10 C2 24.85 2 39.7 2 55 C-10.6875 62.3125 -10.6875 62.3125 -14.6628418 64.6027832 C-15.70609619 65.20437256 -16.74935059 65.80596191 -17.82421875 66.42578125 C-18.88729248 67.03848877 -19.95036621 67.65119629 -21.0456543 68.2824707 C-22.96812044 69.40010968 -24.87457988 70.54590675 -26.76098633 71.72338867 C-29 73 -29 73 -31 73 C-31 79.93 -31 86.86 -31 94 C-37 92 -37 92 -53 83 C-53 64.19 -53 45.38 -53 26 C-45.41 21.71 -37.82 17.42 -30 13 C-21.93936218 8.17326087 -21.93936218 8.17326087 -13.93554688 3.25390625 C-12.97583984 2.67769531 -12.01613281 2.10148437 -11.02734375 1.5078125 C-10.19968506 0.99879395 -9.37202637 0.48977539 -8.51928711 -0.03466797 C-5.28329768 -1.2746236 -3.31865548 -0.85279907 0 0 Z " fill="#0A0A49" transform="translate(94,52)"/>
<path d="M0 0 C2.78800092 1.52980953 5.56137237 3.06276984 8.30224609 4.67626953 C9.39150391 5.30597656 10.48076172 5.93568359 11.60302734 6.58447266 C13.8867809 7.91165973 16.16543717 9.24765593 18.43896484 10.59228516 C19.52822266 11.218125 20.61748047 11.84396484 21.73974609 12.48876953 C22.72910156 13.06780029 23.71845703 13.64683105 24.73779297 14.2434082 C27.94160737 15.55556693 29.27820702 15.4521284 32.52099609 14.38330078 C34.65136941 13.41835126 36.75556018 12.39402043 38.83349609 11.32080078 C39.90212891 10.77294922 40.97076172 10.22509766 42.07177734 9.66064453 C42.88001953 9.23912109 43.68826172 8.81759766 44.52099609 8.38330078 C46.61348048 29.44186558 46.61348048 29.44186558 42.47021484 35.26611328 C39.68327122 36.91244024 36.90362217 38.17679027 33.88964844 39.34814453 C28.78977662 41.57690731 24.10229448 44.65566831 19.33349609 47.50830078 C16.34975871 49.24563668 13.36163211 50.97508444 10.37109375 52.70068359 C8.46040223 53.82870192 6.5691227 54.99022092 4.69824219 56.18310547 C3.37880615 57.02083496 3.37880615 57.02083496 2.03271484 57.87548828 C1.25758545 58.38192871 0.48245605 58.88836914 -0.31616211 59.41015625 C-2.47900391 60.38330078 -2.47900391 60.38330078 -4.48852539 60.17944336 C-6.69799173 59.29571102 -8.74884827 58.29370135 -10.83837891 57.15283203 C-11.69608887 56.68707764 -12.55379883 56.22132324 -13.4375 55.74145508 C-17.38275641 53.55696861 -21.31380514 51.34720798 -25.24755859 49.14208984 C-28.55061906 47.34432257 -31.89755867 45.66788068 -35.26806641 44.00048828 C-51.26217018 35.81982464 -51.26217018 35.81982464 -53.51904297 31.30078125 C-54.50641419 26.78340333 -53.81594019 22.80261795 -52.47900391 18.38330078 C-51.42712891 18.81642578 -51.42712891 18.81642578 -50.35400391 19.25830078 C-49.40525391 19.62955078 -48.45650391 20.00080078 -47.47900391 20.38330078 C-46.55490723 20.7995874 -45.63081055 21.21587402 -44.67871094 21.64477539 C-40.42368497 22.62687928 -39.07149942 21.60192282 -35.40869141 19.32470703 C-34.56517624 18.81265968 -34.56517624 18.81265968 -33.70462036 18.29026794 C-31.90865682 17.1942876 -30.13164427 16.07120469 -28.35400391 14.94580078 C-27.18330484 14.22318905 -26.01143694 13.50246735 -24.83837891 12.78369141 C-17.9444773 8.54883956 -17.9444773 8.54883956 -11.11279297 4.21484375 C-10.0605957 3.55758301 -9.00839844 2.90032227 -7.92431641 2.22314453 C-6.99377441 1.62751709 -6.06323242 1.03188965 -5.10449219 0.41821289 C-2.47900391 -0.61669922 -2.47900391 -0.61669922 0 0 Z " fill="#090948" transform="translate(133.47900390625,158.61669921875)"/>
<path d="M0 0 C2.16546151 1.05956099 4.29467866 2.1946292 6.39453125 3.37890625 C7.28285896 3.87619484 7.28285896 3.87619484 8.18913269 4.38352966 C10.0672498 5.43682539 11.93987495 6.49947663 13.8125 7.5625 C15.09014296 8.28122476 16.36813435 8.99933049 17.64648438 9.71679688 C20.76838811 11.47071749 23.88543976 13.23306468 27 15 C27 15.66 27 16.32 27 17 C24.73103368 18.31582063 22.45996813 19.62775236 20.1875 20.9375 C19.54490234 21.31068359 18.90230469 21.68386719 18.24023438 22.06835938 C15.51683576 23.63466635 12.98891878 25.00369374 10 26 C7.17802305 24.58236637 4.56412868 22.92291443 1.88671875 21.25 C-1.69739067 19.69801757 -3.23713605 20.09039522 -7 21 C-9.85576033 22.30884074 -9.85576033 22.30884074 -12.67578125 24.02734375 C-13.74376953 24.6505249 -14.81175781 25.27370605 -15.91210938 25.91577148 C-17.03423828 26.58294189 -18.15636719 27.2501123 -19.3125 27.9375 C-20.47539434 28.61945354 -21.63880962 29.30051951 -22.80273438 29.98071289 C-28.02189104 33.03629139 -33.21893801 36.12908534 -38.41796875 39.21875 C-39.20324951 39.68418213 -39.98853027 40.14961426 -40.79760742 40.62915039 C-42.23437018 41.48267124 -43.66828031 42.34101786 -45.09887695 43.20483398 C-49.78073494 46 -49.78073494 46 -52 46 C-52 64.81 -52 83.62 -52 103 C-50.02 103.66 -48.04 104.32 -46 105 C-43.95776367 106.03735352 -43.95776367 106.03735352 -42.16796875 107.12890625 C-41.18860352 107.72155273 -41.18860352 107.72155273 -40.18945312 108.32617188 C-39.52880859 108.73416016 -38.86816406 109.14214844 -38.1875 109.5625 C-37.50751953 109.97435547 -36.82753906 110.38621094 -36.12695312 110.81054688 C-31.16952328 113.83047672 -31.16952328 113.83047672 -30 115 C-29.91348389 116.41570123 -29.89295096 117.835595 -29.90234375 119.25390625 C-29.90556641 120.10791016 -29.90878906 120.96191406 -29.91210938 121.84179688 C-29.92467773 123.18854492 -29.92467773 123.18854492 -29.9375 124.5625 C-29.94201172 125.46419922 -29.94652344 126.36589844 -29.95117188 127.29492188 C-29.96299775 129.53001314 -29.9794778 131.76497437 -30 134 C-33.74591064 132.59166366 -37.15727464 130.88470493 -40.640625 128.91796875 C-41.71183594 128.31533203 -42.78304687 127.71269531 -43.88671875 127.09179688 C-44.99660156 126.46337891 -46.10648438 125.83496094 -47.25 125.1875 C-49.44264733 123.95171467 -51.63535464 122.71603576 -53.828125 121.48046875 C-55.2807373 120.65905396 -55.2807373 120.65905396 -56.76269531 119.82104492 C-60.83298696 117.53142913 -64.91583306 115.26474819 -69 113 C-69.37195086 103.26486093 -69.65559231 93.53142869 -69.82899475 83.79061317 C-69.91226162 79.26620987 -70.02497851 74.74668918 -70.20703125 70.22509766 C-70.38188951 65.85445413 -70.47672644 61.48847737 -70.51803589 57.11460495 C-70.54743431 55.45305193 -70.60486475 53.79173451 -70.69168091 52.1321907 C-71.22056013 41.59585208 -71.22056013 41.59585208 -69 37 C-65.13111567 32.83249972 -60.08215686 30.35418134 -54.9973135 27.96066856 C-52.06009985 26.54792649 -49.31539559 24.87940572 -46.5234375 23.19921875 C-44.47576898 22.02548137 -42.42627125 20.85492969 -40.375 19.6875 C-33.74079023 15.90293279 -27.12623878 12.1039204 -20.61328125 8.11328125 C-19.61312988 7.50460205 -18.61297852 6.89592285 -17.58251953 6.26879883 C-15.69458011 5.11530574 -13.81362697 3.95027561 -11.94091797 2.7722168 C-11.09803223 2.25957275 -10.25514648 1.74692871 -9.38671875 1.21875 C-8.29170044 0.5371582 -8.29170044 0.5371582 -7.17456055 -0.15820312 C-4.28385262 -1.27722872 -2.94147692 -0.95213699 0 0 Z " fill="#BE83FB" transform="translate(93,32)"/>
<path d="M0 0 C2.04774535 16.96357097 2.04774535 16.96357097 -1.17919922 21.74853516 C-4.59014233 24.91370437 -8.52407929 26.76122012 -13 28 C-17.82514018 27.60764431 -21.12953353 26.06230451 -25.2734375 23.62109375 C-25.84204498 23.28956802 -26.41065247 22.9580423 -26.99649048 22.61647034 C-28.7945607 21.56544771 -30.58474733 20.50177268 -32.375 19.4375 C-33.59976036 18.7185485 -34.82501643 18.00044075 -36.05078125 17.28320312 C-39.03964851 15.53185524 -42.02158922 13.76908588 -45 12 C-43.62281225 7.86843675 -40.84343515 6.74972442 -37.25 4.6875 C-36.62867188 4.30271484 -36.00734375 3.91792969 -35.3671875 3.52148438 C-32.39759623 1.80175272 -30.70780289 0.83453958 -27.29296875 1.6328125 C-26.53628906 2.08398438 -25.77960938 2.53515625 -25 3 C-24.33097656 3.36480469 -23.66195312 3.72960937 -22.97265625 4.10546875 C-22.34230469 4.46253906 -21.71195313 4.81960937 -21.0625 5.1875 C-18.46104514 6.47127195 -17.0721093 6.99686481 -14.125 7.125 C-10.09862077 5.67550348 -6.6786648 3.56716374 -3.07421875 1.27734375 C-1 0 -1 0 0 0 Z " fill="#69BFF5" transform="translate(178,147)"/>
<path d="M0 0 C0.66 0 1.32 0 2 0 C2 4.29 2 8.58 2 13 C3.98 13.66 5.96 14.32 8 15 C9.82209266 15.92131164 11.61655306 16.89985789 13.375 17.9375 C14.24898437 18.44152344 15.12296875 18.94554687 16.0234375 19.46484375 C16.67570312 19.97144531 17.32796875 20.47804687 18 21 C18 21.99 18 22.98 18 24 C14.59497856 26.04096165 11.17432888 28.05412887 7.75 30.0625 C6.78191406 30.64322266 5.81382813 31.22394531 4.81640625 31.82226562 C3.88183594 32.36689453 2.94726562 32.91152344 1.984375 33.47265625 C0.69611816 34.23461304 0.69611816 34.23461304 -0.61816406 35.01196289 C-3.38423511 36.15938904 -4.26410186 36.08737923 -7 35 C-7.70060547 34.73227783 -8.40121094 34.46455566 -9.12304688 34.1887207 C-11.46497533 32.98692727 -13.17694737 31.91069939 -15 30 C-15.98829575 26.35453635 -15.7614408 22.93062835 -15.5 19.1875 C-15.46390625 18.20845703 -15.4278125 17.22941406 -15.390625 16.22070312 C-15.29654015 13.80977881 -15.16531451 11.40691563 -15 9 C-13.50146484 8.15115234 -13.50146484 8.15115234 -11.97265625 7.28515625 C-10.66922254 6.5443558 -9.36583975 5.80346575 -8.0625 5.0625 C-7.40314453 4.68931641 -6.74378906 4.31613281 -6.06445312 3.93164062 C-2.84167167 2.23037187 -2.84167167 2.23037187 0 0 Z " fill="#0B0C4B" transform="translate(95,126)"/>
<path d="M0 0 C0.845625 0.474375 1.69125 0.94875 2.5625 1.4375 C3.58988281 1.91058594 4.61726563 2.38367188 5.67578125 2.87109375 C8.89633372 5.73429128 9.02481209 6.21370938 9.359375 10.28125 C9.37528567 12.16666428 9.35853602 14.05258068 9.3125 15.9375 C9.33570313 16.88753906 9.35890625 17.83757812 9.3828125 18.81640625 C9.3601421 21.50284896 9.23236356 23.83525039 8.5625 26.4375 C5.765625 29.15625 5.765625 29.15625 2.5625 30.4375 C-0.29442333 29.99614923 -2.58321607 28.96180937 -5.109375 27.58984375 C-6.10517578 27.05327148 -6.10517578 27.05327148 -7.12109375 26.50585938 C-7.80300781 26.13267578 -8.48492187 25.75949219 -9.1875 25.375 C-9.88488281 24.99794922 -10.58226563 24.62089844 -11.30078125 24.23242188 C-13.01518302 23.30476612 -14.72663661 22.37166546 -16.4375 21.4375 C-16.97200346 16.98990327 -17.21749523 12.86449994 -16.4375 8.4375 C-13.86896805 5.49576256 -10.9364615 4.07782259 -7.4375 2.4375 C-6.07625 1.4475 -6.07625 1.4475 -4.6875 0.4375 C-2.4375 -0.5625 -2.4375 -0.5625 0 0 Z " fill="#0A0A48" transform="translate(130.4375,107.5625)"/>
<path d="M0 0 C-0.1134375 0.68964844 -0.226875 1.37929687 -0.34375 2.08984375 C-0.53702195 5.61222499 -0.38243277 7.7209369 1 11 C4.68181318 14.15423629 9.09661882 16.13588233 13.4375 18.22265625 C17 20 17 20 18 22 C15.56721456 23.50814743 13.12933973 25.00664347 10.6875 26.5 C9.99720703 26.92925781 9.30691406 27.35851562 8.59570312 27.80078125 C7.92861328 28.20683594 7.26152344 28.61289063 6.57421875 29.03125 C5.65515747 29.59682617 5.65515747 29.59682617 4.7175293 30.17382812 C3 31 3 31 0 31 C-1.80932617 30.17382812 -1.80932617 30.17382812 -3.79296875 29.03125 C-4.8612793 28.42216797 -4.8612793 28.42216797 -5.95117188 27.80078125 C-6.68916016 27.37152344 -7.42714844 26.94226563 -8.1875 26.5 C-8.93708984 26.07074219 -9.68667969 25.64148438 -10.45898438 25.19921875 C-12.30928339 24.13853779 -14.15508063 23.07001077 -16 22 C-16.81324868 17.44024673 -17.13021916 13.52087663 -16 9 C-12.07236862 5.37115109 -7.83616026 3.21294737 -3 1 C-1 0 -1 0 0 0 Z " fill="#69C0F6" transform="translate(113,117)"/>
<path d="M0 0 C5.37999264 2.92835042 10.7595285 5.85760265 16.125 8.8125 C16.84945312 9.21082031 17.57390625 9.60914063 18.3203125 10.01953125 C20 11 20 11 21 12 C21.96167683 16.23273253 22.15912785 19.79816153 21 24 C17.15021844 27.73786931 13.08606142 30.17527409 8 32 C3.74713804 31.80862121 0.7601237 30.58552764 -2.875 28.4375 C-3.65617188 27.98246094 -4.43734375 27.52742188 -5.2421875 27.05859375 C-5.82226562 26.70925781 -6.40234375 26.35992187 -7 26 C-7 25.34 -7 24.68 -7 24 C-2.61538462 21 -2.61538462 21 0 21 C0 14.07 0 7.14 0 0 Z " fill="#0A0A49" transform="translate(157,123)"/>
<path d="M0 0 C1.00804688 0.45761719 2.01609375 0.91523437 3.0546875 1.38671875 C4.75238281 2.08861328 4.75238281 2.08861328 6.484375 2.8046875 C10.36174984 4.79612832 12.97748955 6.28264571 16.0546875 9.38671875 C17.18954322 14.60705508 16.85391576 19.14050251 16.0546875 24.38671875 C15.46300781 24.08636719 14.87132812 23.78601563 14.26171875 23.4765625 C13.47152344 23.09628906 12.68132812 22.71601562 11.8671875 22.32421875 C10.70123047 21.74994141 10.70123047 21.74994141 9.51171875 21.1640625 C5.44272183 19.87673279 2.91201036 20.96904864 -0.83984375 22.796875 C-1.80277344 23.34214844 -2.76570313 23.88742188 -3.7578125 24.44921875 C-5.4696875 25.41859375 -7.1815625 26.38796875 -8.9453125 27.38671875 C-8.9453125 19.13671875 -8.9453125 10.88671875 -8.9453125 2.38671875 C-2.9453125 -0.61328125 -2.9453125 -0.61328125 0 0 Z " fill="#0A0A49" transform="translate(122.9453125,68.61328125)"/>
</svg>
